<svg viewBox="0 0 800 600" xmlns="http://www.w3.org/2000/svg">
  <defs>
    <linearGradient id="bg" x1="0" y1="0" x2="800" y2="600" gradientUnits="userSpaceOnUse">
      <stop offset="0" stop-color="#191d2b"/>
      <stop offset="1" stop-color="#12181b"/>
    </linearGradient>
    <linearGradient id="lineFill" x1="0" y1="0" x2="0" y2="1">
      <stop offset="0" stop-color="#27AE60" stop-opacity="0.35"/>
      <stop offset="1" stop-color="#27AE60" stop-opacity="0"/>
    </linearGradient>
  </defs>

  <rect width="800" height="600" fill="url(#bg)"/>

  <g stroke="#2a2e35" stroke-width="1">
    <line x1="0" y1="120" x2="800" y2="120"/>
    <line x1="0" y1="220" x2="800" y2="220"/>
    <line x1="0" y1="320" x2="800" y2="320"/>
    <line x1="0" y1="420" x2="800" y2="420"/>
  </g>

  <g>
    <rect x="90" y="300" width="16" height="70" fill="#27AE60"/>
    <line x1="98" y1="285" x2="98" y2="385" stroke="#27AE60" stroke-width="2"/>
    <rect x="140" y="260" width="16" height="55" fill="#e74c3c"/>
    <line x1="148" y1="245" x2="148" y2="330" stroke="#e74c3c" stroke-width="2"/>
    <rect x="190" y="330" width="16" height="40" fill="#27AE60"/>
    <line x1="198" y1="315" x2="198" y2="385" stroke="#27AE60" stroke-width="2"/>
    <rect x="240" y="290" width="16" height="65" fill="#27AE60"/>
    <line x1="248" y1="275" x2="248" y2="370" stroke="#27AE60" stroke-width="2"/>
    <rect x="290" y="250" width="16" height="50" fill="#e74c3c"/>
    <line x1="298" y1="235" x2="298" y2="315" stroke="#e74c3c" stroke-width="2"/>
  </g>

  <path d="M 90 340 L 190 300 L 290 260 L 390 275 L 490 210 L 590 230 L 690 160 L 760 140"
        fill="none" stroke="#27AE60" stroke-width="4" stroke-linecap="round" stroke-linejoin="round"/>
  <path d="M 90 340 L 190 300 L 290 260 L 390 275 L 490 210 L 590 230 L 690 160 L 760 140 L 760 460 L 90 460 Z"
        fill="url(#lineFill)"/>

  <g fill="#27AE60">
    <circle cx="490" cy="210" r="5"/>
    <circle cx="690" cy="160" r="5"/>
  </g>

  <g transform="translate(600, 130)">
    <circle cx="0" cy="0" r="26" fill="none" stroke="#f8f8f8" stroke-width="4"/>
    <line x1="19" y1="19" x2="34" y2="34" stroke="#f8f8f8" stroke-width="5" stroke-linecap="round"/>
  </g>

  <text x="90" y="470" font-family="'Poppins', Arial, sans-serif" font-size="46" font-weight="700" fill="#f8f8f8">stock<tspan fill="#27AE60">wAI</tspan>tch</text>
  <text x="90" y="505" font-family="'Poppins', Arial, sans-serif" font-size="18" letter-spacing="1" fill="#b2becd">AI FINANCIAL NEWS SUMMARIZER · RAG · FASTAPI</text>
</svg>
